<?xml version="1.0" standalone="no"?><!DOCTYPE svg PUBLIC "-//W3C//DTD SVG 1.1//EN" "http://www.w3.org/Graphics/SVG/1.1/DTD/svg11.dtd"><svg t="1732169657175" class="icon" viewBox="0 0 1024 1024" version="1.1" xmlns="http://www.w3.org/2000/svg" p-id="5090" width="64" height="64" xmlns:xlink="http://www.w3.org/1999/xlink"><path d="M87.210667 807.808h849.578666c29.184 0 53.077333-23.893333 53.077334-53.12 0-29.184-23.893333-53.077333-53.077334-53.077333H87.210667c-29.184 0-53.077333 23.893333-53.077334 53.077333 0 29.226667 23.893333 53.12 53.077334 53.12z m0-265.472h849.578666c29.184 0 53.077333-23.893333 53.077334-53.077333 0-29.184-23.893333-53.12-53.077334-53.12H87.210667c-29.184 0-53.077333 23.893333-53.077334 53.12 0 29.184 23.893333 53.077333 53.077334 53.077333zM34.133333 223.744c0 29.226667 23.893333 53.12 53.077334 53.12h849.578666c29.184 0 53.077333-23.893333 53.077334-53.12C989.866667 194.56 965.973333 170.666667 936.789333 170.666667H87.210667C58.026667 170.666667 34.133333 194.56 34.133333 223.744z" fill="#333333" p-id="5091"></path></svg>